<svg width="15" height="14" viewBox="0 0 15 14" fill="none" xmlns="http://www.w3.org/2000/svg">
<path fill-rule="evenodd" clip-rule="evenodd" d="M11.5519 6.99992C13.3494 6.99992 14.8053 5.50825 14.8053 3.66658C14.8053 1.82492 13.3494 0.333252 11.5519 0.333252C11.1697 0.333252 10.8118 0.416585 10.4702 0.533252C11.1701 1.4201 11.5519 2.52609 11.5519 3.66658C11.5519 4.80708 11.1701 5.91307 10.4702 6.79992C10.8118 6.91658 11.1697 6.99992 11.5519 6.99992ZM6.67195 7.83325C4.50035 7.83325 0.165283 8.94992 0.165283 11.1666V12.8333C0.165283 13.2916 0.531283 13.6666 0.978616 13.6666H12.3653C12.8126 13.6666 13.1786 13.2916 13.1786 12.8333V11.1666C13.1786 8.94992 8.84355 7.83325 6.67195 7.83325Z" fill="#0065FF"/>
</svg>
