<svg width="18" height="18" viewBox="0 0 18 18" fill="none" xmlns="http://www.w3.org/2000/svg">
<path d="M1.304 10H7.16C7.6968 10 8.136 9.55 8.136 9V1C8.136 0.45 7.6968 0 7.16 0H1.304C0.767203 0 0.328003 0.45 0.328003 1V9C0.328003 9.55 0.767203 10 1.304 10ZM1.304 18H7.16C7.6968 18 8.136 17.55 8.136 17V13C8.136 12.45 7.6968 12 7.16 12H1.304C0.767203 12 0.328003 12.45 0.328003 13V17C0.328003 17.55 0.767203 18 1.304 18ZM11.064 18H16.92C17.4568 18 17.896 17.55 17.896 17V9C17.896 8.45 17.4568 8 16.92 8H11.064C10.5272 8 10.088 8.45 10.088 9V17C10.088 17.55 10.5272 18 11.064 18ZM10.088 1V5C10.088 5.55 10.5272 6 11.064 6H16.92C17.4568 6 17.896 5.55 17.896 5V1C17.896 0.45 17.4568 0 16.92 0H11.064C10.5272 0 10.088 0.45 10.088 1Z" fill="#344563"/>
</svg>
