<svg width="55" height="55" viewBox="0 0 55 55" fill="none" xmlns="http://www.w3.org/2000/svg">
<path d="M41.1 24.25C40.8239 24.25 40.6 24.4739 40.6 24.75V28.6786C40.6 28.9547 40.8239 29.1786 41.1 29.1786H48.5C48.7761 29.1786 49 28.9547 49 28.6786V24.75C49 24.4739 48.7761 24.25 48.5 24.25H41.1ZM36.634 40.1745C36.4998 40.3838 36.539 40.6595 36.7266 40.8227C38.5508 42.4093 40.7973 44.3896 42.684 46.046C42.9137 46.2476 43.2686 46.1975 43.4335 45.9401C44.0914 44.9129 44.7493 43.8744 45.4073 42.8482C45.5409 42.6398 45.5026 42.3652 45.3165 42.2019C43.4457 40.5597 41.2 38.5788 39.3598 36.9586C39.1289 36.7553 38.7712 36.8071 38.607 37.0672C37.9493 38.1088 37.2916 39.1485 36.634 40.1745ZM45.3204 11.2267C45.5046 11.0632 45.5418 10.7902 45.4088 10.5828C44.7504 9.55581 44.0919 8.51643 43.4335 7.48843C43.2686 7.23109 42.9137 7.18099 42.684 7.38262C40.7959 9.04035 38.5474 11.0237 36.7224 12.6305C36.5369 12.7938 36.4989 13.068 36.6324 13.2761C37.2902 14.3023 37.9481 15.3408 38.606 16.3679C38.771 16.6255 39.1264 16.6754 39.3562 16.4735C41.1983 14.8543 43.4476 12.888 45.3204 11.2267ZM11.2 19.3214C8.89 19.3214 7 21.5393 7 24.25V29.1786C7 31.8893 8.89 34.1071 11.2 34.1071H12.8C13.0761 34.1071 13.3 34.331 13.3 34.6071V43.4643C13.3 43.7404 13.5239 43.9643 13.8 43.9643H17C17.2761 43.9643 17.5 43.7404 17.5 43.4643V34.6071C17.5 34.331 17.7239 34.1071 18 34.1071H19.4416C19.5447 34.1071 19.6452 34.139 19.7295 34.1983L29.3121 40.9453C29.6434 41.1785 30.1 40.9416 30.1 40.5365V12.8921C30.1 12.487 29.6434 12.25 29.3121 12.4833L19.7295 19.2303C19.6452 19.2896 19.5447 19.3214 19.4416 19.3214H11.2ZM35.35 26.7143C35.35 23.919 34.464 21.3567 33.0048 19.4097C32.7344 19.0489 32.2 19.2545 32.2 19.7054V33.7095C32.2 34.1589 32.7314 34.3652 33.0024 34.0067C34.4631 32.0746 35.35 29.5111 35.35 26.7143Z" fill="#00875A"/>
</svg>
