<svg width="17" height="13" viewBox="0 0 17 13" fill="none" xmlns="http://www.w3.org/2000/svg">
<path d="M14.7104 0H2.21761C1.35873 0 0.663814 0.72 0.663814 1.6L0.656006 11.2C0.656006 12.08 1.35873 12.8 2.21761 12.8H14.7104C15.5693 12.8 16.272 12.08 16.272 11.2V1.6C16.272 0.72 15.5693 0 14.7104 0ZM14.3981 3.4L8.87783 6.936C8.62797 7.096 8.30004 7.096 8.05018 6.936L2.52993 3.4C2.45163 3.35497 2.38307 3.29413 2.32839 3.22116C2.27371 3.1482 2.23405 3.06462 2.21181 2.9755C2.18957 2.88637 2.1852 2.79355 2.19899 2.70265C2.21277 2.61174 2.24442 2.52465 2.292 2.44664C2.33959 2.36863 2.40213 2.30132 2.47584 2.2488C2.54955 2.19627 2.63289 2.15961 2.72083 2.14104C2.80876 2.12247 2.89947 2.12237 2.98744 2.14076C3.07541 2.15914 3.15883 2.19563 3.23265 2.248L8.464 5.6L13.6954 2.248C13.7692 2.19563 13.8526 2.15914 13.9406 2.14076C14.0285 2.12237 14.1192 2.12247 14.2072 2.14104C14.2951 2.15961 14.3785 2.19627 14.4522 2.2488C14.5259 2.30132 14.5884 2.36863 14.636 2.44664C14.6836 2.52465 14.7152 2.61174 14.729 2.70265C14.7428 2.79355 14.7384 2.88637 14.7162 2.9755C14.694 3.06462 14.6543 3.1482 14.5996 3.22116C14.5449 3.29413 14.4764 3.35497 14.3981 3.4Z" fill="#42526E"/>
</svg>
