<svg width="18" height="17" viewBox="0 0 18 17" fill="none" xmlns="http://www.w3.org/2000/svg">
<path d="M14.8824 7.39286C14.6063 7.39286 14.3824 7.61671 14.3824 7.89286V9.0051C14.3824 9.28124 14.6063 9.5051 14.8824 9.5051H17.396C17.6721 9.5051 17.896 9.28124 17.896 9.0051V7.89286C17.896 7.61671 17.6721 7.39286 17.396 7.39286H14.8824ZM12.8499 14.0151C12.7208 14.2224 12.7592 14.4926 12.9414 14.6553C13.5843 15.2296 14.328 15.9003 14.9949 16.5007C15.2255 16.7083 15.5873 16.6575 15.7513 16.3942C15.9233 16.1179 16.0954 15.8407 16.2674 15.5649C16.3961 15.3586 16.3586 15.0895 16.1778 14.9268C15.5227 14.3372 14.7796 13.666 14.1252 13.0754C13.8933 12.8661 13.5288 12.9186 13.3647 13.1844C13.1931 13.4625 13.0215 13.7398 12.8499 14.0151ZM16.1813 1.97079C16.3606 1.80827 16.3969 1.54073 16.2689 1.33545C16.0964 1.05887 15.9238 0.780822 15.7513 0.503797C15.5873 0.24043 15.2255 0.189649 14.9949 0.397274C14.3266 0.999094 13.5813 1.67244 12.9375 2.25338C12.7571 2.4161 12.7198 2.68476 12.8484 2.89085C13.0204 3.16654 13.1924 3.4437 13.3643 3.71983C13.5285 3.98349 13.8909 4.03411 14.1218 3.82638C14.7782 3.23586 15.5242 2.56662 16.1813 1.97079ZM2.0848 5.28061C1.11856 5.28061 0.328003 6.23112 0.328003 7.39286V9.5051C0.328003 10.6668 1.11856 11.6173 2.0848 11.6173H2.4632C2.73935 11.6173 2.9632 11.8412 2.9632 12.1173V15.3418C2.9632 15.618 3.18706 15.8418 3.4632 15.8418H4.22C4.49615 15.8418 4.72 15.618 4.72 15.3418V12.1173C4.72 11.8412 4.94386 11.6173 5.22 11.6173H5.43688C5.54189 11.6173 5.64424 11.6504 5.7294 11.7118L9.19788 14.214C9.52857 14.4526 9.9904 14.2163 9.9904 13.8085V3.08947C9.9904 2.68171 9.52857 2.44541 9.19788 2.68397L5.7294 5.18611C5.64424 5.24755 5.54189 5.28061 5.43688 5.28061H2.0848ZM12.1864 8.44898C12.1864 7.5321 11.9693 6.67373 11.5938 5.94728C11.3854 5.54413 10.8688 5.72583 10.8688 6.17966V10.719C10.8688 11.1714 11.3826 11.3536 11.5914 10.9523C11.9684 10.2279 12.1864 9.36779 12.1864 8.44898Z" fill="#344563"/>
</svg>
