<svg width="14" height="14" viewBox="0 0 14 14" fill="none" xmlns="http://www.w3.org/2000/svg">
<path d="M13.1872 12.5516C12.929 5.76925 7.57942 0.290478 0.962326 0.0261737C0.713489 0.0162301 0.508518 0.22107 0.509488 0.476225L0.514729 1.83274C0.515506 2.07617 0.704754 2.27524 0.942139 2.28578C6.3692 2.5292 10.7444 7.01083 10.982 12.5725C10.9923 12.8158 11.1868 13.0095 11.4242 13.0105L12.7481 13.0158C12.997 13.0166 13.1969 12.8066 13.1872 12.5516ZM3.24864 10.2091C2.56249 9.50609 1.4503 9.5061 0.764149 10.2091C0.0780029 10.9121 0.0780026 12.0517 0.764149 12.7547C1.4503 13.4577 2.56249 13.4577 3.24864 12.7547C3.93479 12.0517 3.93479 10.9121 3.24864 10.2091ZM8.80497 12.5773C8.54624 8.25796 5.14831 4.78085 0.937287 4.51615C0.684956 4.50024 0.475133 4.70647 0.47688 4.96521L0.485615 6.3261C0.487167 6.56316 0.666904 6.76323 0.898078 6.78053C3.93615 7.00685 6.37464 9.51166 6.59475 12.6173C6.61163 12.8541 6.80671 13.0385 7.03827 13.0399L8.3665 13.0488C8.61922 13.0508 8.8205 12.8354 8.80497 12.5773Z" fill="#344563"/>
</svg>
