<svg width="24" height="24" viewBox="0 0 24 24" fill="none" xmlns="http://www.w3.org/2000/svg">
<rect width="24" height="24" fill="white" fill-opacity="0.01"/>
<path d="M17.222 11.5571L12.11 16.6401C11.5466 17.1989 10.7854 17.5128 9.99181 17.5135C9.19826 17.5143 8.43647 17.2018 7.87199 16.6441C7.59486 16.368 7.37501 16.0399 7.22505 15.6785C7.0751 15.3172 6.998 14.9299 6.99819 14.5387C6.99838 14.1475 7.07584 13.7602 7.22614 13.399C7.37643 13.0378 7.5966 12.7099 7.87399 12.4341L13.339 7.00008C13.6668 6.6725 14.1111 6.48832 14.5746 6.48795C15.038 6.48757 15.4827 6.67103 15.811 6.99808C16.494 7.67708 16.495 8.77308 15.813 9.45008L10.687 14.5451C10.6407 14.5907 10.5859 14.6267 10.5257 14.651C10.4654 14.6753 10.401 14.6875 10.336 14.6869C10.2711 14.6862 10.2069 14.6728 10.1472 14.6472C10.0874 14.6217 10.0333 14.5846 9.98799 14.5381C9.94102 14.4926 9.90368 14.4381 9.87818 14.3779C9.85268 14.3177 9.83954 14.253 9.83954 14.1876C9.83954 14.1222 9.85268 14.0575 9.87818 13.9973C9.90368 13.937 9.94102 13.8826 9.98799 13.8371L14.752 9.10208C14.8215 9.03326 14.8767 8.95134 14.9144 8.86106C14.9521 8.77077 14.9715 8.67391 14.9715 8.57608C14.9715 8.47825 14.9521 8.38138 14.9144 8.2911C14.8767 8.20081 14.8215 8.11889 14.752 8.05008C14.6112 7.91072 14.4211 7.83255 14.223 7.83255C14.0249 7.83255 13.8348 7.91072 13.694 8.05008L8.92999 12.7851C8.74419 12.9683 8.59666 13.1867 8.49597 13.4275C8.39528 13.6682 8.34342 13.9266 8.34342 14.1876C8.34342 14.4486 8.39528 14.7069 8.49597 14.9477C8.59666 15.1885 8.74419 15.4068 8.92999 15.5901C9.71099 16.3671 10.968 16.3701 11.746 15.5971L16.872 10.5031C17.173 10.2048 17.4118 9.84974 17.5747 9.45854C17.7376 9.06733 17.8214 8.64772 17.8211 8.22395C17.8208 7.80019 17.7365 7.38068 17.5731 6.98969C17.4097 6.59871 17.1704 6.244 16.869 5.94608C16.2591 5.33978 15.434 4.99963 14.5741 5C13.7141 5.00038 12.8893 5.34125 12.28 5.94808L6.81399 11.3811C6.3977 11.7947 6.06731 12.2865 5.84183 12.8283C5.61634 13.37 5.50022 13.9511 5.50012 14.5379C5.50003 15.1247 5.61597 15.7057 5.84129 16.2476C6.0666 16.7894 6.39684 17.2813 6.81299 17.6951C7.65911 18.5318 8.80131 19.0008 9.99131 19.0001C11.1813 18.9993 12.3229 18.5289 13.168 17.6911L18.281 12.6101C18.3507 12.5412 18.406 12.4593 18.4438 12.3689C18.4815 12.2785 18.501 12.1815 18.501 12.0836C18.501 11.9856 18.4815 11.8886 18.4438 11.7983C18.406 11.7079 18.3507 11.6259 18.281 11.5571C18.1401 11.4174 17.9498 11.3391 17.7515 11.3391C17.5531 11.3391 17.3628 11.4174 17.222 11.5571Z" fill="#42526E"/>
</svg>
