<svg width="22" height="22" viewBox="0 0 22 22" fill="none" xmlns="http://www.w3.org/2000/svg">
<rect width="22" height="22" fill="white" fill-opacity="0.01"/>
<path fill-rule="evenodd" clip-rule="evenodd" d="M20.1663 11C20.1663 16.0626 16.0623 20.1667 10.9997 20.1667C5.93706 20.1667 1.83301 16.0626 1.83301 11C1.83301 5.9374 5.93706 1.83334 10.9997 1.83334C16.0623 1.83334 20.1663 5.9374 20.1663 11ZM8.60021 10.1465C8.71205 10.1946 8.8132 10.2644 8.89776 10.3519L10.083 11.5372L13.1016 8.51861C13.1861 8.43106 13.2873 8.36123 13.3991 8.31319C13.511 8.26514 13.6313 8.23986 13.753 8.2388C13.8747 8.23774 13.9954 8.26094 14.108 8.30703C14.2207 8.35312 14.323 8.42118 14.4091 8.50725C14.4952 8.59332 14.5633 8.69567 14.6093 8.80832C14.6554 8.92098 14.6786 9.04168 14.6776 9.1634C14.6765 9.28511 14.6512 9.4054 14.6032 9.51723C14.5551 9.62907 14.4853 9.73022 14.3978 9.81478L10.7311 13.4814C10.5592 13.6533 10.3261 13.7498 10.083 13.7498C9.83994 13.7498 9.60682 13.6533 9.43492 13.4814L7.60159 11.6481C7.51404 11.5636 7.4442 11.4624 7.39616 11.3506C7.34812 11.2387 7.32283 11.1184 7.32178 10.9967C7.32072 10.875 7.34391 10.7543 7.39 10.6417C7.43609 10.529 7.50416 10.4267 7.59023 10.3406C7.6763 10.2545 7.77864 10.1865 7.8913 10.1404C8.00395 10.0943 8.12466 10.0711 8.24637 10.0721C8.36809 10.0732 8.48837 10.0985 8.60021 10.1465Z" fill="#006644"/>
</svg>
