<svg width="9" height="11" viewBox="0 0 9 11" fill="none" xmlns="http://www.w3.org/2000/svg">
<path d="M0.864258 11V0.335938H4.59961C5.89355 0.335938 6.875 0.584961 7.54395 1.08301C8.21289 1.57617 8.54736 2.30127 8.54736 3.2583C8.54736 3.78076 8.41309 4.24219 8.14453 4.64258C7.87598 5.03809 7.50244 5.32861 7.02393 5.51416C7.5708 5.65088 8.00049 5.92676 8.31299 6.3418C8.63037 6.75684 8.78906 7.26465 8.78906 7.86523C8.78906 8.89062 8.46191 9.66699 7.80762 10.1943C7.15332 10.7217 6.2207 10.9902 5.00977 11H0.864258ZM3.06152 6.35645V9.23486H4.94385C5.46143 9.23486 5.86426 9.11279 6.15234 8.86865C6.44531 8.61963 6.5918 8.27783 6.5918 7.84326C6.5918 6.8667 6.08643 6.37109 5.07568 6.35645H3.06152ZM3.06152 4.80371H4.6875C5.7959 4.78418 6.3501 4.34229 6.3501 3.47803C6.3501 2.99463 6.2085 2.64795 5.92529 2.43799C5.64697 2.22314 5.20508 2.11572 4.59961 2.11572H3.06152V4.80371Z" fill="#344563"/>
</svg>
