<svg width="20" height="20" viewBox="0 0 20 20" fill="none" xmlns="http://www.w3.org/2000/svg">
<path fill-rule="evenodd" clip-rule="evenodd" d="M8.74228e-07 10C1.35705e-06 4.47715 4.47715 -1.35705e-06 10 -8.74228e-07C15.5228 -3.91405e-07 20 4.47715 20 10C20 15.5228 15.5228 20 10 20C4.47715 20 3.91405e-07 15.5228 8.74228e-07 10ZM13.9996 10.9975C13.9996 11.2632 13.8948 11.5181 13.708 11.707C13.616 11.7998 13.5065 11.8735 13.3858 11.9238C13.2651 11.9741 13.1357 11.9999 13.005 11.9999C12.8743 11.9999 12.7449 11.9741 12.6242 11.9238C12.5035 11.8735 12.394 11.7998 12.302 11.707L9.995 9.38L7.697 11.697C7.60517 11.7902 7.49573 11.8642 7.37504 11.9147C7.25436 11.9652 7.12483 11.9912 6.994 11.9912C6.86317 11.9912 6.73365 11.9652 6.61296 11.9147C6.49227 11.8642 6.38283 11.7902 6.291 11.697C6.10443 11.508 5.99983 11.2531 5.99983 10.9875C5.99983 10.7219 6.10443 10.467 6.291 10.278L9.221 7.323C9.434 7.108 9.711 7.001 9.99 7.001C10.269 7.001 10.551 7.108 10.769 7.323L13.708 10.288C13.8948 10.4769 13.9996 10.7318 13.9996 10.9975Z" fill="#7A869A"/>
</svg>
