<svg width="20" height="20" viewBox="0 0 20 20" fill="none" xmlns="http://www.w3.org/2000/svg">
<path fill-rule="evenodd" clip-rule="evenodd" d="M20 10C20 15.5228 15.5228 20 10 20C4.47715 20 0 15.5228 0 10C0 4.47715 4.47715 0 10 0C15.5228 0 20 4.47715 20 10ZM6.00042 9.0025C6.00042 8.73684 6.10519 8.48189 6.292 8.293C6.38404 8.20018 6.49354 8.1265 6.6142 8.07623C6.73486 8.02595 6.86428 8.00006 6.995 8.00006C7.12572 8.00006 7.25514 8.02595 7.3758 8.07623C7.49646 8.1265 7.60596 8.20018 7.698 8.293L10.005 10.62L12.303 8.303C12.3948 8.20982 12.5043 8.13582 12.625 8.08531C12.7456 8.0348 12.8752 8.00879 13.006 8.00879C13.1368 8.00879 13.2664 8.0348 13.387 8.08531C13.5077 8.13582 13.6172 8.20982 13.709 8.303C13.8956 8.49202 14.0002 8.74692 14.0002 9.0125C14.0002 9.27809 13.8956 9.53298 13.709 9.722L10.779 12.677C10.566 12.892 10.289 12.999 10.01 12.999C9.731 12.999 9.449 12.892 9.231 12.677L6.292 9.712C6.10519 9.52311 6.00042 9.26816 6.00042 9.0025Z" fill="#7A869A"/>
</svg>
