<svg width="36" height="34" viewBox="0 0 36 34" fill="none" xmlns="http://www.w3.org/2000/svg">
<path d="M1.23944e-05 3.95438C1.23944e-05 1.76953 1.75773 0 3.92684 0H31.5032C33.6723 0 35.43 1.77544 35.43 3.95438V19.6656C35.43 21.8505 33.6723 23.62 31.5032 23.62H3.92684C2.88205 23.6153 1.88179 23.1963 1.14559 22.4549C0.409395 21.7136 -0.00260492 20.7104 1.23944e-05 19.6656V3.95438ZM3.93668 19.6833H31.4933V3.93666H3.93668V19.6833Z" fill="#0065FF"/>
<path fill-rule="evenodd" clip-rule="evenodd" d="M13.7783 25.5883H21.6517V31.4933H13.7783V25.5883ZM11.81 32.4775C11.81 32.2195 11.9112 31.9718 12.092 31.7878C12.2727 31.6037 12.5185 31.498 12.7765 31.4933H22.6536C22.9115 31.498 23.1573 31.6037 23.338 31.7878C23.5188 31.9718 23.62 32.2195 23.62 32.4775V33.4617H11.81V32.4775Z" fill="#0065FF"/>
</svg>
