<svg width="11" height="18" viewBox="0 0 11 18" fill="none" xmlns="http://www.w3.org/2000/svg">
<path fill-rule="evenodd" clip-rule="evenodd" d="M0.644607 17.3439C1.06026 17.7643 1.62125 18 2.20584 18C2.79042 18 3.35142 17.7643 3.76707 17.3439L10.2915 10.731C10.7646 10.2405 11 9.60594 11 8.97817C11 8.3504 10.7646 7.72713 10.2915 7.24787L3.78908 0.655165C3.37315 0.235379 2.81225 3.68782e-07 2.22784 2.92146e-07C1.64343 2.1551e-07 1.08254 0.235378 0.666614 0.655165C0.461565 0.861792 0.298735 1.10804 0.187594 1.3796C0.0764527 1.65115 0.0192183 1.94259 0.0192183 2.23696C0.0192182 2.53134 0.0764525 2.82278 0.187594 3.09433C0.298735 3.36589 0.461565 3.61213 0.666614 3.81876L5.76509 8.98942L0.644607 14.1803C0.440357 14.3874 0.278236 14.6338 0.167599 14.9053C0.0569624 15.1768 3.32031e-07 15.468 2.93462e-07 15.7621C2.54893e-07 16.0562 0.0569623 16.3475 0.167599 16.6189C0.278236 16.8904 0.440357 17.1368 0.644607 17.3439Z" fill="#0065FF"/>
</svg>
