<svg width="29" height="24" viewBox="0 0 29 24" fill="none" xmlns="http://www.w3.org/2000/svg">
<path fill-rule="evenodd" clip-rule="evenodd" d="M2.33715 1.78768C2.33715 1.78768 7.10309 7.71178 14.3635 8.06808C14.3635 8.06808 12.8816 4.13898 17.3115 1.44573C17.3115 1.44573 20.9106 -0.668266 24.384 2.75473C24.384 2.75473 25.9506 2.67878 27.8388 1.29033C27.8388 1.29033 28.1167 2.56783 25.6545 4.62268C25.6545 4.62268 27.0244 4.51173 28.5794 3.49323C28.5794 3.49323 28.2833 5.25198 25.7469 6.52948C25.7469 6.52948 26.5186 20.4448 12.939 23.4905C12.939 23.4905 5.7577 25.111 0.700195 21.1434C0.700195 21.1434 6.065 21.702 8.91505 18.7123C8.91505 18.7123 5.33875 19.0476 3.57825 14.8283C3.57825 14.8283 5.3664 15.1356 6.093 14.549C6.093 14.549 2.3207 14.5767 1.48245 8.93258C1.48245 8.93258 3.0193 9.71483 4.0252 9.57518C4.0252 9.57518 -0.245155 6.93758 2.33715 1.78768Z" fill="white"/>
</svg>
