<svg width="596" height="163" viewBox="0 0 596 163" fill="none" xmlns="http://www.w3.org/2000/svg">
<g opacity="0.75">
<path d="M594.899 162.225H25.1007C24.4959 162.225 23.9999 161.417 23.9999 160.433V160.017C23.9999 159.032 24.4959 158.225 25.1007 158.225H594.899C595.504 158.225 596 159.032 596 160.017V160.433C596.002 161.417 595.506 162.225 594.899 162.225Z" fill="#010117"/>
<path d="M293.548 79.7832H288.487L294.684 158.224H306.993L293.548 79.7832Z" fill="#3A49CD"/>
<path d="M394.192 56.8934L393.107 57.1122C388.269 58.0882 383.511 54.9331 382.535 50.0952L381.386 44.416C380.411 39.5781 383.566 34.8202 388.403 33.8442L389.489 33.6254C394.327 32.6495 399.085 35.8046 400.061 40.6425L401.209 46.3217C402.189 51.1595 399.03 55.9174 394.192 56.8934Z" fill="#060632"/>
<path d="M288.487 79.7834C288.487 79.7834 316.126 66.8096 353.992 75.442L293.548 79.7834H288.487Z" fill="#3A49CD"/>
<path d="M306.993 158.972L293.548 79.7873C293.548 79.7873 335.894 65.564 368.749 79.7873L388.294 158.476L306.993 158.972Z" fill="#BED2FA"/>
<path d="M579.688 134.451C578.935 143.041 574.085 145.695 571.952 145.468C569.819 145.241 557.342 140.475 557.072 142.225C556.799 143.975 564.312 149.684 569.571 149.953C569.571 149.953 559.643 160.903 553.042 157.744C546.442 154.584 545.882 149.574 541.768 147.694C537.654 145.813 534.145 145.822 535.841 147.736C537.54 149.65 544.986 151.513 547.338 155.674C547.893 156.654 548.436 157.563 548.848 158.362L534.953 158.333C530.548 156.145 526.834 153.125 526.56 149.869C526.539 149.62 526.518 149.385 526.501 149.158C526.072 144.152 526.072 144.152 526.072 144.152C526.072 144.152 518.938 135.83 522.648 128.923C523.262 127.774 524.179 126.668 525.475 125.641C525.475 125.641 532.126 121.615 537.549 121.944C537.549 121.944 533.346 128.99 532.164 133.176C531.747 134.653 531.705 135.772 532.353 136.104C533.06 136.47 533.977 135.406 534.928 133.702C537.305 129.432 539.879 121.132 539.879 121.132C539.879 121.132 543.876 120.745 548.427 120.686C550.468 120.661 552.622 120.698 554.574 120.871C556.728 121.06 558.638 121.409 559.879 122.007C559.879 122.007 559.605 122.23 559.151 122.613C558.473 123.18 557.384 124.102 556.176 125.174C552.588 128.346 547.927 132.823 549.669 133.226C551.078 133.555 555.508 130.921 559.449 128.309C563.118 125.881 566.365 123.466 566.365 123.466C566.365 123.466 580.437 125.86 579.688 134.451Z" fill="#6D89CF"/>
<path d="M572.768 134.681C572.768 134.681 534.516 133.209 526.068 144.147C526.068 144.147 524.2 149.742 518.45 154.836L517.554 157.276C517.554 157.276 524.184 150.289 526.556 149.864C526.552 149.868 522.846 136.314 572.768 134.681Z" fill="#6D89CF"/>
<path d="M520.057 154.778C519.728 155.135 519.236 155.628 518.534 156.275L518.517 156.292C518.273 156.519 518.037 156.763 517.806 157.02C517.453 157.411 517.112 157.845 516.788 158.299L515 158.295C516.843 156.031 518.445 154.841 518.445 154.841C518.445 154.841 518.445 154.841 518.45 154.837C518.593 154.753 521.887 152.759 520.057 154.778Z" fill="#6D89CF"/>
<path d="M5.30804 134.451C6.06107 143.041 10.9115 145.695 13.0444 145.468C15.1772 145.241 27.6547 140.475 27.924 142.225C28.1974 143.975 20.684 149.684 15.4255 149.953C15.4255 149.953 25.3535 160.903 31.9541 157.744C38.5546 154.584 39.1141 149.574 43.2284 147.694C47.3427 145.813 50.8512 145.822 49.1559 147.736C47.4563 149.65 40.0102 151.513 37.6585 155.674C37.1032 156.654 36.5606 157.563 36.1484 158.362L50.0434 158.333C54.448 156.145 58.1627 153.125 58.4362 149.869C58.4572 149.62 58.4782 149.385 58.495 149.158C58.9241 144.152 58.9241 144.152 58.9241 144.152C58.9241 144.152 66.0588 135.83 62.3484 128.923C61.7342 127.774 60.8171 126.668 59.5214 125.641C59.5214 125.641 52.8705 121.615 47.4479 121.944C47.4479 121.944 51.6505 128.99 52.8326 133.176C53.2491 134.653 53.2912 135.772 52.6433 136.104C51.9366 136.47 51.0194 135.406 50.0687 133.702C47.6918 129.432 45.1173 121.132 45.1173 121.132C45.1173 121.132 41.1208 120.745 36.569 120.686C34.5287 120.661 32.3748 120.698 30.4228 120.871C28.2689 121.06 26.359 121.409 25.118 122.007C25.118 122.007 25.3915 122.23 25.8458 122.613C26.5231 123.18 27.6126 124.102 28.82 125.174C32.4084 128.346 37.0696 132.823 35.3279 133.226C33.9187 133.555 29.4889 130.921 25.5471 128.309C21.8787 125.881 18.6311 123.466 18.6311 123.466C18.6311 123.466 4.55923 125.86 5.30804 134.451Z" fill="#6D89CF"/>
<path d="M12.2282 134.681C12.2282 134.681 50.4809 133.209 58.9282 144.147C58.9282 144.147 60.7961 149.742 66.5469 154.836L67.4429 157.276C67.4429 157.276 60.8129 150.289 58.4403 149.864C58.4445 149.868 62.1507 136.314 12.2282 134.681Z" fill="#6D89CF"/>
<path d="M64.9398 154.778C65.268 155.135 65.7601 155.628 66.4627 156.275L66.4795 156.292C66.7235 156.519 66.9591 156.763 67.1904 157.02C67.5438 157.411 67.8846 157.845 68.2086 158.299L69.9965 158.295C68.1539 156.031 66.5511 154.841 66.5511 154.841C66.5511 154.841 66.5511 154.841 66.5469 154.837C66.4038 154.753 63.1099 152.759 64.9398 154.778Z" fill="#6D89CF"/>
<path d="M504.403 129.916C504.403 129.916 519.838 121.275 512.635 109.542C512.635 109.542 506.872 102.34 500.701 100.489C500.701 100.489 503.995 117.981 500.701 118.393C497.407 118.806 498.437 98.638 498.437 98.638C498.437 98.638 482.182 90.8175 475.8 91.4359C475.8 91.4359 485.884 108.516 482.59 108.103C479.296 107.691 467.98 90.4052 467.98 90.4052C467.98 90.4052 451.312 87.3174 448.637 97.195C445.961 107.073 450.282 112.012 452.751 112.63C455.221 113.248 471.064 113.042 470.655 115.099C470.243 117.156 459.545 120.45 453.576 118.599C453.576 118.599 460.159 134.855 468.804 134.034C477.445 133.21 480.121 127.863 485.472 127.451C490.823 127.038 494.731 128.481 492.056 129.92C489.38 131.359 480.327 130.391 476.007 134.064C471.686 137.736 468.186 140 476.213 141.649C484.239 143.294 498.643 142.267 501.521 136.091C504.403 129.916 504.403 129.916 504.403 129.916Z" fill="#6D89CF"/>
<path d="M456.251 100.283C456.251 100.283 499.464 114.275 504.403 129.916C504.403 129.916 504.196 136.912 508.517 144.939V148.027C508.517 148.027 503.99 137.53 501.521 136.092C501.521 136.088 511.192 122.508 456.251 100.283Z" fill="#6D89CF"/>
<path d="M512.522 158.266L510.052 158.262C509.972 154.691 509.56 150.681 508.344 147.627C508.193 147.244 508.029 146.878 507.848 146.529C507.848 146.525 507.844 146.521 507.844 146.517C507.331 145.511 506.986 144.775 506.767 144.237C505.505 141.14 508.525 144.943 508.525 144.943C508.525 144.943 512.139 150.437 512.522 158.266Z" fill="#6D89CF"/>
<path d="M80.5938 129.916C80.5938 129.916 65.1589 121.275 72.361 109.542C72.361 109.542 78.1244 102.34 84.2958 100.489C84.2958 100.489 81.0018 117.981 84.2958 118.393C87.5897 118.806 86.559 98.638 86.559 98.638C86.559 98.638 102.814 90.8175 109.196 91.4359C109.196 91.4359 99.1123 108.516 102.406 108.103C105.7 107.691 117.017 90.4052 117.017 90.4052C117.017 90.4052 133.684 87.3174 136.36 97.195C139.035 107.073 134.715 112.012 132.245 112.63C129.776 113.248 113.933 113.042 114.341 115.099C114.753 117.156 125.451 120.45 131.421 118.599C131.421 118.599 124.837 134.855 116.192 134.034C107.551 133.21 104.876 127.863 99.5245 127.451C94.1734 127.038 90.2653 128.481 92.9408 129.92C95.6164 131.359 104.669 130.391 108.99 134.064C113.31 137.736 116.81 140 108.784 141.649C100.757 143.294 86.353 142.267 83.4755 136.091C80.5938 129.916 80.5938 129.916 80.5938 129.916Z" fill="#6D89CF"/>
<path d="M128.745 100.283C128.745 100.283 85.5326 114.275 80.5938 129.916C80.5938 129.916 80.7999 136.912 76.4795 144.939V148.027C76.4795 148.027 81.0061 137.53 83.4755 136.092C83.4755 136.088 73.8039 122.508 128.745 100.283Z" fill="#6D89CF"/>
<path d="M72.4746 158.266L74.9441 158.262C75.024 154.691 75.4362 150.681 76.652 147.627C76.8034 147.244 76.9676 146.878 77.1485 146.529C77.1485 146.525 77.1527 146.521 77.1527 146.517C77.6659 145.511 78.0108 144.775 78.2295 144.237C79.4916 141.14 76.4711 144.943 76.4711 144.943C76.4711 144.943 72.8574 150.437 72.4746 158.266Z" fill="#6D89CF"/>
<path d="M510.374 117.993C510.374 117.993 490.03 106.601 499.525 91.1412C499.525 91.1412 507.118 81.6464 515.258 79.2064C515.258 79.2064 510.917 102.264 515.258 102.807C519.6 103.349 518.241 76.7665 518.241 76.7665C518.241 76.7665 539.67 66.4597 548.08 67.2716C548.08 67.2716 534.791 89.7866 539.128 89.2439C543.469 88.7012 558.387 65.9171 558.387 65.9171C558.387 65.9171 580.359 61.8491 583.884 74.8692C587.41 87.8894 581.714 94.3973 578.462 95.2134C575.206 96.0254 554.319 95.7561 554.861 98.4695C555.404 101.183 569.51 105.52 577.376 103.08C577.376 103.08 568.698 124.51 557.306 123.424C545.913 122.339 542.388 115.288 535.333 114.746C528.283 114.203 523.125 116.1 526.655 118.002C530.184 119.903 542.115 118.624 547.811 123.466C553.507 128.309 558.117 131.291 547.541 133.462C536.961 135.633 517.976 134.274 514.177 126.138C510.374 117.993 510.374 117.993 510.374 117.993Z" fill="#93B3F4"/>
<path d="M573.843 78.9326C573.843 78.9326 516.882 97.3796 510.37 117.993C510.37 117.993 510.639 127.214 504.943 137.795V141.863C504.943 141.863 510.913 128.031 514.165 126.129C514.169 126.133 501.422 108.229 573.843 78.9326Z" fill="#6D89CF"/>
<path d="M507.265 136.861C507.265 136.865 507.261 136.865 507.261 136.869C506.971 137.576 506.516 138.556 505.839 139.881C505.839 139.885 505.835 139.885 505.835 139.89C505.599 140.348 505.385 140.832 505.183 141.337C505.183 141.337 505.183 141.337 505.183 141.341C503.231 146.229 502.848 152.973 502.92 158.286L499.651 158.278C499.26 146.44 504.951 137.799 504.951 137.799C505.036 137.685 508.906 132.831 507.265 136.861Z" fill="#6D89CF"/>
<path d="M74.6223 117.993C74.6223 117.993 94.9666 106.601 85.4717 91.1412C85.4717 91.1412 77.8784 81.6464 69.7382 79.2064C69.7382 79.2064 74.0797 102.264 69.7382 102.807C65.3968 103.349 66.7555 76.7665 66.7555 76.7665C66.7555 76.7665 45.326 66.4597 36.9165 67.2716C36.9165 67.2716 50.2059 89.7866 45.8687 89.2439C41.5272 88.7012 26.6098 65.9171 26.6098 65.9171C26.6098 65.9171 4.63744 61.8491 1.11211 74.8692C-2.41321 87.8894 3.2829 94.3973 6.53478 95.2134C9.79087 96.0254 30.6777 95.7561 30.135 98.4695C29.5924 101.183 15.4868 105.52 7.62007 103.08C7.62007 103.08 16.2989 124.51 27.691 123.424C39.0831 122.339 42.6084 115.288 49.6632 114.746C56.7139 114.203 61.8714 116.1 58.3419 118.002C54.8123 119.903 42.8818 118.624 37.1857 123.466C31.4897 128.309 26.879 131.291 37.455 133.462C48.0352 135.633 67.0206 134.274 70.8194 126.138C74.6224 117.993 74.6223 117.993 74.6223 117.993Z" fill="#93B3F4"/>
<path d="M11.1539 78.9326C11.1539 78.9326 68.1144 97.3796 74.6265 117.993C74.6265 117.993 74.3574 127.214 80.0534 137.795V141.863C80.0534 141.863 74.0838 128.031 70.832 126.129C70.8278 126.133 83.5745 108.229 11.1539 78.9326Z" fill="#6D89CF"/>
<path d="M77.7312 136.861C77.7312 136.865 77.7354 136.865 77.7354 136.869C78.0257 137.576 78.48 138.556 79.1573 139.881C79.1573 139.885 79.1615 139.885 79.1615 139.89C79.3971 140.348 79.6117 140.832 79.8136 141.337C79.8136 141.337 79.8136 141.337 79.8136 141.341C81.7656 146.229 82.1484 152.973 82.0769 158.286L85.3455 158.278C85.7368 146.44 80.045 137.799 80.045 137.799C79.9608 137.685 76.0906 132.831 77.7312 136.861Z" fill="#6D89CF"/>
<path d="M427.674 158.472H350.298C349.154 155.699 348.152 152.738 347.273 149.65C345.069 141.935 343.639 133.432 342.73 125.103C342.717 124.998 342.705 124.888 342.696 124.783C341.135 110.337 341.127 96.4418 341.337 88.0955C341.459 83.266 341.649 80.2918 341.661 80.1445V80.1403C341.825 80.0688 341.994 80.0015 342.158 79.9384C346.259 78.2178 350.197 76.7328 353.966 75.4498C353.987 75.4455 354 75.4413 354 75.4413C357.172 74.3602 360.222 73.4262 363.158 72.6227C368.32 71.205 373.124 70.187 377.567 69.4802C382.804 68.6515 387.541 68.256 391.79 68.1677C391.983 68.1593 392.169 68.1593 392.362 68.1551C393.481 68.134 394.566 68.1382 395.618 68.1635C406.211 68.3907 413.257 70.4983 416.825 71.9034C417.321 72.0969 417.746 72.282 418.099 72.4461C418.146 72.4671 418.192 72.4839 418.238 72.505C418.642 72.6859 418.953 72.8373 419.172 72.9467C419.197 72.9593 419.231 72.9761 419.256 72.9929C419.362 73.0476 419.463 73.1065 419.559 73.1654L425.138 131.804L427.674 158.472Z" fill="#0B0754"/>
<path d="M504.781 145.797C497.028 149.398 450.917 152.418 446.487 151.144C444.216 150.487 434.708 142.116 425.146 131.813C425.138 131.809 425.138 131.809 425.138 131.809C416.089 122.066 406.96 110.598 403.885 102.344C397.553 85.3825 402.997 70.3262 402.997 70.3262C402.997 70.3262 414.764 70.2758 419.559 73.1743C424.355 76.077 451.779 126.584 455.448 127.918C459.116 129.26 502.556 131.742 507.528 134.102C507.524 134.093 512.526 142.196 504.781 145.797Z" fill="#0B0754"/>
<path d="M392.345 70.2087L392.333 73.0652C392.333 73.0652 393.124 81.9921 382.131 83.313C371.139 84.6382 362.801 79.8592 363.087 72.9684C364.067 67.63 365.152 63.9658 365.215 59.5486C365.241 57.9079 365.127 56.1663 364.816 54.2017L386.123 53.7432L392.4 54.757L392.345 70.2087Z" fill="#FDA6A4"/>
<path d="M392.404 54.7613L392.345 70.2088C390.082 71.2647 387.533 71.9126 384.668 71.9168C374.874 71.9336 365.127 56.1706 364.82 54.2061L392.404 54.7613Z" fill="#FC9290"/>
<path d="M393.658 62.2656C393.658 62.2656 366.377 67.8187 363.179 50.7768C359.982 33.7349 354.307 22.9738 371.589 18.7081C388.87 14.4424 393.485 20.3067 395.938 25.7377C398.391 31.1645 400.671 60.381 393.658 62.2656Z" fill="#FDA6A4"/>
<path d="M401.226 13.0628C401.226 13.0628 393.616 12.4906 384.634 8.59932C377.344 5.4442 368.156 8.94426 365.178 10.5218C365.257 10.0422 365.447 9.38597 365.901 8.7255C365.901 8.7255 364.563 9.67626 364.366 11.0056C364.227 11.1066 364.168 11.1781 364.202 11.1991C364.202 11.1991 362.683 10.9257 361.707 11.3632C361.707 11.3632 362.388 11.2665 362.632 11.704C362.658 11.7502 362.695 11.7881 362.742 11.826C351.388 17.3327 350.365 35.2959 354.029 39.448C358.438 44.4415 363.73 55.6948 363.73 55.6948C363.73 55.6948 365.649 53.0319 364.845 48.6316C364.037 44.2312 367.84 44.227 372.636 42.2203C377.432 40.2137 373.423 34.6186 377.617 31.211C381.811 27.8035 397.213 29.7807 397.011 27.1809C402.723 25.0901 401.226 13.6475 401.226 13.0628Z" fill="#9E332E"/>
<path d="M350.294 158.472C349.15 155.7 348.148 152.738 347.269 149.65C345.065 141.935 343.634 133.433 342.726 125.103C342.713 124.998 342.7 124.889 342.692 124.784C342.751 124.809 342.848 124.969 342.911 124.893C345.923 121.233 354.147 117.228 364.109 131.809C366.095 134.716 374.811 155.069 376.199 158.472H350.294Z" fill="#030231"/>
<path d="M358.379 158.472C358.156 157.155 358.404 155.502 359.431 153.436C359.431 153.436 360.71 152.608 362.401 151.644C364.925 150.218 368.383 148.493 369.948 148.771C370.23 148.821 370.609 148.906 371.059 149.015C374.773 149.907 383.427 152.574 384.735 154.135C385.812 155.418 387.28 157.054 388.294 158.476H358.379V158.472Z" fill="#FDA6A4"/>
<path d="M364.105 158.472H291.196C291.003 157.534 290.994 156.671 291.251 156.019C293.426 150.525 297.671 141.485 302.559 131.78C306.156 124.641 310.093 117.144 313.816 110.443C318.982 101.133 323.715 93.3503 326.496 90.1573C328.687 87.6458 331.456 85.5382 334.341 83.8008C336.79 82.3242 339.322 81.1126 341.657 80.145V80.1408C341.821 80.0693 341.99 80.002 342.154 79.9389C347.231 77.8817 351.253 76.9814 351.253 76.9814C351.253 76.9814 351.308 79.2868 351.312 82.8247C351.329 93.102 350.933 113.812 347.652 118.865C346.739 120.274 345.035 122.403 342.907 124.897C342.843 124.969 342.785 125.036 342.721 125.108C341.569 126.458 340.294 127.909 338.952 129.407C331.342 137.93 321.704 147.942 320.53 149.158C320.451 149.242 320.408 149.284 320.408 149.284H320.547L340.992 149.57L347.265 149.654L360.268 149.835C361.164 150.222 361.867 150.858 362.401 151.649C363.659 153.483 364.046 156.162 364.105 158.472Z" fill="#0B0754"/>
<path d="M504.781 145.796C497.028 149.397 450.917 152.418 446.487 151.143C444.216 150.487 434.708 142.115 425.146 131.813C425.617 131.876 429.992 124.585 449.937 142.031C449.937 142.031 455.162 144.358 469.372 143.053C483.583 141.749 501.836 141.27 504.781 145.796Z" fill="#030231"/>
<path d="M459.478 158.333H406.762C406.762 156.01 408.643 154.13 410.965 154.13H459.478V158.333Z" fill="#A83F3F"/>
<path d="M459.326 100.922H540.83L521.281 158.333H439.251L459.326 100.922Z" fill="#A83F3F"/>
<path d="M542.029 100.918L522.479 158.333H440.45L460.53 100.918H542.029Z" fill="#B05050"/>
<path d="M498.088 129.095C497.583 131.287 495.392 133.067 493.2 133.067C491.008 133.067 489.637 131.287 490.146 129.095C490.651 126.903 492.842 125.124 495.034 125.124C497.226 125.124 498.593 126.903 498.088 129.095Z" fill="#ED6966"/>
<path d="M542.029 100.918L522.479 158.333H484.319L530.026 100.918H542.029Z" fill="#A83F3F"/>
<path d="M371.109 56.8934L370.024 57.1122C365.186 58.0882 360.428 54.9331 359.452 50.0952L358.304 44.416C357.328 39.5781 360.483 34.8202 365.321 33.8442L366.406 33.6254C371.244 32.6495 376.002 35.8046 376.978 40.6425L378.126 46.3217C379.102 51.1595 375.947 55.9174 371.109 56.8934Z" fill="#060632"/>
<path d="M362.653 36.4446C361.926 35.132 360.857 24.5603 363.764 16.1466C365.169 12.0786 367.441 9.76068 370.289 8.19573C371.32 7.62781 372.472 7.3291 373.65 7.3291L376.515 7.37537C367.087 11.3677 364.9 32.7216 365.636 34.9974C365.615 34.9259 365.586 34.8754 365.565 34.8376L362.653 36.4446Z" fill="#060632"/>
<path d="M390.166 58.6728C374.319 58.6728 366.477 46.1532 366.402 46.0228L367.819 45.1562L367.113 45.5895L367.819 45.1562C367.891 45.274 375.278 57.0111 390.17 57.0111C390.271 57.0111 390.368 57.0111 390.469 57.0111L390.486 58.6728C390.381 58.6728 390.271 58.6728 390.166 58.6728Z" fill="#060632"/>
<path d="M368.551 51.3361L368.009 51.4455C365.598 51.9335 363.23 50.3602 362.742 47.9496L362.17 45.1184C361.682 42.7079 363.255 40.3353 365.666 39.8515L366.208 39.7421C368.619 39.2541 370.991 40.8274 371.475 43.238L372.047 46.0692C372.535 48.4755 370.962 50.8481 368.551 51.3361Z" fill="#0B0754"/>
<path d="M392.135 59.2241H390.642C389.88 59.2241 389.257 58.6015 389.257 57.8401C389.257 57.0786 389.88 56.4561 390.642 56.4561H392.135C392.896 56.4561 393.519 57.0786 393.519 57.8401C393.519 58.6015 392.896 59.2241 392.135 59.2241Z" fill="#060632"/>
<path d="M91.527 34.4298C91.527 34.4298 78.2335 41.228 87.9218 55.8299C87.9218 55.8299 76.5003 57.1509 73.627 53.8653C73.627 53.8653 74.0603 55.3041 74.5651 56.0024C74.5651 56.0024 63.5011 54.5511 59.5341 50.3568C55.5671 46.1626 67.9309 -9.6242 97.404 1.79315C97.404 1.79315 123.608 4.18264 116.171 33.7188C108.733 63.255 118.505 64.8956 118.505 64.8956C118.505 64.8956 115.565 65.7791 114.252 65.5603C114.252 65.5603 112.456 64.5086 112.258 63.3854C112.258 63.3854 112.359 65.1144 112.759 65.7244C112.759 65.7244 102.044 64.9546 97.4461 60.0873C92.8522 55.2242 88.9903 40.353 91.527 34.4298Z" fill="#9E332E"/>
<path d="M110.504 49.0227L109.44 49.1699C104.699 49.8262 100.286 46.4859 99.6252 41.749L98.8553 36.1876C98.1991 31.4465 101.539 27.0336 106.276 26.3731L107.341 26.2259C112.082 25.5696 116.495 28.9098 117.155 33.6467L117.925 39.2082C118.585 43.9493 115.245 48.3664 110.504 49.0227Z" fill="#93B3F4"/>
<path d="M113.541 93.6198C109.574 96.6824 107.063 107.738 100.668 109.56C76.6937 116.404 63.8208 87.9322 59.614 74.0329C62.8238 71.9715 65.9158 71.3952 67.7037 71.0881C69.4453 70.7936 71.2837 70.5622 72.8066 70.4066C75.4232 68.1812 79.0495 59.4351 79.2683 46.1289L80.4251 46.3771L99.8145 50.6345C99.8145 50.6345 99.2507 56.7554 99.1119 62.5229C99.0109 67.0369 98.8637 68.1138 99.2129 68.6523C100.723 68.9005 102.498 72.7582 102.498 72.7582C102.498 72.7582 102.498 72.7624 102.511 72.775C102.789 73.1872 108.8 82.0258 113.541 93.6198Z" fill="#FDA6A4"/>
<path d="M99.8187 50.6431C99.8187 50.6431 99.2508 56.7598 99.1162 62.5316C88.2289 62.0015 82.6758 51.943 80.4294 46.3857L99.8187 50.6431Z" fill="#FC9290"/>
<path d="M198.431 151.194C198.431 151.194 187.031 151.615 174.65 151.657C173.186 151.665 171.701 151.665 170.228 151.657C160.145 151.615 150.233 151.262 146.018 150.172C141.9 149.112 126.053 138.372 113.373 125.36C113.369 125.356 113.369 125.352 113.369 125.352C112.385 127.695 111.644 129.487 111.623 129.63C111.249 132.55 110.626 135.478 109.873 138.288C107 149.007 102.208 158.009 102.04 158.321L95.2501 158.308L42.2356 158.232C42.2356 158.232 52.2478 142.806 49.5597 103.295C49.4923 102.294 58.7895 70.4146 58.7895 70.4146C58.7895 70.4146 66.0126 69.1526 74.3632 68.4795C75.1498 69.1989 76.7737 90.17 87.215 91.3857C88.9146 91.5834 99.8103 108.23 99.8103 108.23L103.113 91.2259L99.2087 68.6646C104.219 70.1328 106.966 70.6586 111.131 72.3245C113.966 73.4604 116.314 75.5512 117.778 78.231C125.077 91.5666 148.757 134.577 151.176 135.578C153.439 136.517 161.97 138.22 170.994 139.869H171.003C183.08 142.074 196.046 144.169 196.046 144.169L198.431 151.194Z" fill="#BED2FA"/>
<path d="M105.826 158.321L102.031 158.333C102.031 158.333 102.04 158.321 102.044 158.316L105.826 158.321Z" fill="#BED2FA"/>
<path d="M103.05 56.4691C103.05 56.4691 77.2701 55.9642 77.8296 39.9151C78.3891 23.8661 75.4443 12.9914 91.9267 12.6338C108.409 12.2762 111.392 18.515 112.506 23.9166C113.621 29.3182 109.768 56.1872 103.05 56.4691Z" fill="#FDA6A4"/>
<path d="M174.646 151.653C173.182 151.661 171.697 151.661 170.224 151.653C160.14 151.611 150.229 151.258 146.014 150.168C141.895 149.108 126.048 138.368 113.369 125.356C113.365 125.352 113.365 125.348 113.365 125.348C113.365 125.348 116.04 115.108 117.193 113.392C118.346 111.675 122.897 128.335 133.524 135.116C144.155 141.893 160.788 146.643 168.865 144.724C174.305 143.433 174.86 148.321 174.646 151.653Z" fill="#93B3F4"/>
<path d="M97.9846 47.5382C97.9846 47.5382 98.1486 49.4607 102.376 49.7636C102.376 49.7636 105.927 50.0202 106.074 47.9547C106.074 47.9505 102.843 46.0111 97.9846 47.5382Z" fill="white"/>
<path d="M99.3812 54.0288C84.733 49.4013 81.1404 35.5356 81.1068 35.3968L82.6675 35.0098L81.885 35.2033L82.6675 35.0098C82.7011 35.1402 86.1003 48.1477 99.8692 52.4975C99.9618 52.527 100.054 52.5564 100.147 52.5817L99.6799 54.1214C99.5747 54.0877 99.478 54.0583 99.3812 54.0288Z" fill="#060632"/>
<path d="M101.039 55.1142L99.6589 54.6767C98.9563 54.4537 98.5608 53.6965 98.7838 52.9939C99.0068 52.2914 99.764 51.8959 100.467 52.1189L101.846 52.5564C102.549 52.7794 102.944 53.5366 102.721 54.2391C102.498 54.9417 101.741 55.3329 101.039 55.1142Z" fill="#93B3F4"/>
<path d="M104.514 10.5054C104.514 10.5054 97.913 30.0588 88.0101 33.3737C78.1072 36.6887 74.8259 32.7637 74.8259 32.7637C74.8259 32.7637 82.1206 26.0623 82.9577 15.217C82.9577 15.217 98.9563 2.51243 104.514 10.5054Z" fill="#9E332E"/>
<path d="M92.1875 16.2602C92.1875 16.2602 105.628 15.5072 109.646 19.3312C112.544 22.0909 112.477 23.5338 112.7 27.2106C112.7 27.2106 118.577 18.1449 112.532 11.7967C106.116 5.07002 92.1875 16.2602 92.1875 16.2602Z" fill="#9E332E"/>
<path d="M103.941 12.5705C103.941 12.5705 100.576 31.2783 88.2709 38.0723C88.2709 38.0723 100.189 25.8725 100.399 13.6685C100.61 1.46868 103.941 12.5705 103.941 12.5705Z" fill="#9E332E"/>
<path d="M59.5341 50.357C63.4969 54.5512 74.5609 56.0025 74.5609 56.0025C74.0561 55.3042 73.627 53.8612 73.627 53.8612C79.3146 58.4719 93.2813 55.1233 93.2813 55.1233C82.1416 52.6623 85.7469 36.5838 89.5372 35.8981C91.7458 23.774 96.1251 8.67564 98.1781 1.89423C97.6859 1.8143 97.404 1.78906 97.404 1.78906C67.9352 -9.62408 55.5713 46.167 59.5341 50.357Z" fill="#9E332E"/>
<path d="M83.736 47.3736L82.6716 47.5209C77.9305 48.1771 73.5175 44.8369 72.857 40.1L72.0872 34.5344C71.4309 29.7933 74.7712 25.3803 79.5081 24.7198L80.5724 24.5726C85.3135 23.9163 89.7265 27.2565 90.3869 31.9934L91.1568 37.5548C91.813 42.3001 88.4771 46.7174 83.736 47.3736Z" fill="#93B3F4"/>
<path d="M76.7736 27.08C76.1426 25.8937 78.3596 16.6765 81.6241 9.53331C83.2017 6.0795 87.1813 1.45196 90.021 0.26143C91.0474 -0.167667 92.4104 0.00485997 93.521 0.25727C94.3287 0.438164 96.5962 1.49826 96.5962 1.49826C87.2613 4.40939 79.1463 23.9754 79.7353 25.9989C79.7184 25.9358 79.6932 25.8895 79.6722 25.8558L76.7736 27.08Z" fill="#93B3F4"/>
<path d="M81.5947 41.8418L81.0646 41.9175C78.7046 42.2456 76.5044 40.5797 76.1763 38.2197L75.7935 35.4474C75.4654 33.0873 77.1312 30.8872 79.4913 30.559L80.0213 30.4875C82.3814 30.1594 84.5816 31.8253 84.9097 34.1853L85.2925 36.9577C85.6207 39.3135 83.9547 41.5136 81.5947 41.8418Z" fill="#6D89CF"/>
<path d="M144.15 141.897C144.15 141.897 155.206 141.262 156.279 141.842C158.024 142.785 163.96 146.609 164.894 147.719C165.828 148.83 168.264 153.289 168.264 153.289C168.264 153.289 167.208 153.583 166.733 153.154C166.257 152.725 162.648 148.893 162.648 148.893L166.354 154.522C166.354 154.522 165.075 154.467 164.566 153.907C164.057 153.348 160.595 149.827 160.595 149.827L159.417 149.595C159.417 149.595 160.62 150.559 161.272 151.43C161.924 152.3 162.357 153.239 162.357 153.239C162.357 153.239 161.302 153.062 160.973 152.902C160.645 152.746 157.541 150.029 157.541 150.029L159.186 152.275C159.186 152.275 158.075 152.22 157.713 151.972C157.351 151.724 154.928 149.499 154.499 149.503C154.07 149.507 150.982 149.381 149.657 148.678C148.332 147.976 144.171 146.365 144.171 146.365L144.15 141.897Z" fill="#FDA6A4"/>
<path d="M75.8903 65.3955C75.8903 65.3955 68.4988 67.5494 66.8119 69.249C66.8119 69.249 74.5398 89.0084 85.6837 98.2298L88.6622 96.118V100.922L99.8187 108.221C99.8187 108.221 75.3181 71.3734 75.8903 65.3955Z" fill="#93B3F4"/>
<path d="M109.873 138.288C107 149.007 102.208 158.009 102.04 158.321L105.826 158.325L102.031 158.337H66.8119C66.8119 158.337 70.8967 158.329 70.8883 158.312C70.7915 157.955 76.8452 141.548 66.8119 134.825C56.7575 128.09 53.1144 111.528 53.1144 111.528L85.099 103.716C85.099 103.716 98.279 122.945 102.031 126.614C104.913 129.428 111.623 129.638 111.623 129.638L109.873 138.288Z" fill="#93B3F4"/>
<path d="M99.2129 68.6561C99.2129 68.6561 102.616 95.5419 99.8187 108.221C99.8187 108.221 104.383 99.8329 105.027 98.2932L104.257 93.6825L107.202 94.7048C107.202 94.7048 104.602 73.271 102.25 69.5143C99.8986 65.7576 99.032 65.3916 99.032 65.3916L99.2129 68.6561Z" fill="#93B3F4"/>
<path d="M198.431 151.194C198.431 151.194 184.166 151.72 170.224 151.657C166.766 146.293 171.002 139.865 171.002 139.865H171.011C183.089 142.07 196.054 144.165 196.054 144.165L198.431 151.194Z" fill="#FDA6A4"/>
<path d="M199.781 158.333H147.066C147.066 156.011 148.946 154.131 151.268 154.131H199.781V158.333Z" fill="#3662C1"/>
<path d="M281.129 100.918L261.584 158.333H179.551L199.63 100.918H281.129Z" fill="#93B3F4"/>
<path d="M281.129 100.918L261.761 157.803L261.584 158.333H180.75L200.829 100.918H281.129Z" fill="#93B3F4"/>
<path d="M238.392 129.096C237.887 131.288 235.695 133.068 233.503 133.068C231.312 133.068 229.944 131.288 230.449 129.096C230.954 126.904 233.146 125.125 235.338 125.125C237.529 125.125 238.897 126.904 238.392 129.096Z" fill="#EFA2A2"/>
<path d="M281.129 100.918L261.761 157.803H224.623L269.905 100.918H281.129Z" fill="#3662C1"/>
<path d="M144.163 146.365C144.163 146.365 117.025 148.737 102.027 148.069V133.332C111.854 136.045 144.15 141.901 144.15 141.901L144.163 146.365Z" fill="#FDA6A4"/>
<path d="M66.8118 69.249C66.8118 69.249 51.2929 69.6024 46.4887 74.7894C41.6845 79.9764 51.255 109.298 51.255 109.298C51.255 109.298 80.1812 144.728 94.6527 147.223C94.6527 147.223 100.976 148.085 103.929 148.136C103.929 148.136 101.034 139.709 106.419 134.421C106.419 134.421 100.223 132.688 99.9659 131.918C99.7093 131.148 66.8118 69.249 66.8118 69.249Z" fill="#BED2FA"/>
</g>
</svg>
