<svg width="405" height="369" viewBox="0 0 405 369" fill="none" xmlns="http://www.w3.org/2000/svg">
<g clip-path="url(#clip0)">
<path d="M202.5 306.57C270.533 306.57 325.685 251.347 325.685 183.226C325.685 115.105 270.533 59.8821 202.5 59.8821C134.467 59.8821 79.3157 115.105 79.3157 183.226C79.3157 251.347 134.467 306.57 202.5 306.57Z" fill="#53C2C9"/>
<path d="M306.15 185.604C307.449 128.287 262.097 80.7682 204.855 79.4675C147.612 78.1668 100.155 123.577 98.8555 180.893C97.5565 238.21 142.908 285.729 200.15 287.03C257.393 288.33 304.851 242.92 306.15 185.604Z" fill="#F4F5F7"/>
<path d="M197.955 170.242C197.955 182.377 185.837 188.08 174.446 196.21H198.683V209.8H152.935V205.917C153.06 203.119 153.81 200.386 155.132 197.918C156.453 195.45 158.312 193.311 160.57 191.659C173.113 180.496 182.08 176.006 182.08 170.789C182.08 167.755 180.081 164.721 175.173 164.721C174.153 164.633 173.126 164.765 172.161 165.108C171.196 165.452 170.317 165.999 169.581 166.712C168.846 167.425 168.272 168.288 167.899 169.243C167.525 170.197 167.361 171.221 167.417 172.245V173.883H153.178C153.119 173.277 153.119 172.668 153.178 172.063C153.178 160.778 161.055 153.376 176.809 153.376C189.776 153.619 197.955 160.232 197.955 170.242Z" fill="#D40000"/>
<path d="M235.341 153.619C234.129 162.416 222.859 178.918 215.225 186.684H231.1V175.218C234.64 170.211 237.474 164.74 239.522 158.958H246.309V186.684H254.004V198.454H246.309V209.8H231.1V198.454H204.257V186.32C210.982 176.181 216.169 165.099 219.648 153.437L235.341 153.619Z" fill="#D40000"/>
<path d="M205.348 92.341C205.348 90.7661 204.073 89.4895 202.5 89.4895C200.927 89.4895 199.652 90.7661 199.652 92.341V101.381C199.652 102.956 200.927 104.232 202.5 104.232C204.073 104.232 205.348 102.956 205.348 101.381V92.341Z" fill="#505050"/>
<path d="M205.348 265.677C205.348 264.102 204.073 262.826 202.5 262.826C200.927 262.826 199.652 264.102 199.652 265.677V274.717C199.652 276.292 200.927 277.569 202.5 277.569C204.073 277.569 205.348 276.292 205.348 274.717V265.677Z" fill="#505050"/>
<path d="M146.513 127.409C145.98 127.935 145.261 128.23 144.513 128.23C143.765 128.23 143.046 127.935 142.513 127.409L136.091 121.342C135.565 120.808 135.271 120.089 135.271 119.34C135.271 118.59 135.565 117.871 136.091 117.338C136.623 116.812 137.342 116.517 138.09 116.517C138.839 116.517 139.557 116.812 140.09 117.338L146.513 123.769C146.936 124.28 147.168 124.924 147.168 125.589C147.168 126.254 146.936 126.897 146.513 127.409Z" fill="#505050"/>
<path d="M268.909 249.964C268.376 250.49 267.658 250.785 266.91 250.785C266.161 250.785 265.443 250.49 264.91 249.964L258.487 243.533C257.962 242.999 257.667 242.28 257.667 241.531C257.667 240.781 257.962 240.062 258.487 239.528C258.743 239.253 259.052 239.033 259.396 238.882C259.74 238.732 260.112 238.654 260.487 238.654C260.862 238.654 261.234 238.732 261.578 238.882C261.922 239.033 262.231 239.253 262.486 239.528L268.849 245.596C269.191 245.845 269.47 246.171 269.665 246.547C269.86 246.924 269.964 247.341 269.97 247.764C269.976 248.188 269.883 248.608 269.699 248.99C269.515 249.371 269.244 249.705 268.909 249.964Z" fill="#505050"/>
<path d="M120.458 180.617H111.429C109.857 180.617 108.582 181.894 108.582 183.469C108.582 185.044 109.857 186.32 111.429 186.32H120.458C122.031 186.32 123.306 185.044 123.306 183.469C123.306 181.894 122.031 180.617 120.458 180.617Z" fill="#505050"/>
<path d="M293.57 180.617H284.542C282.969 180.617 281.694 181.894 281.694 183.469C281.694 185.044 282.969 186.32 284.542 186.32H293.57C295.143 186.32 296.418 185.044 296.418 183.469C296.418 181.894 295.143 180.617 293.57 180.617Z" fill="#505050"/>
<path d="M146.452 239.589C146.977 240.123 147.272 240.842 147.272 241.591C147.272 242.341 146.977 243.06 146.452 243.594L140.029 250.025C139.496 250.551 138.778 250.846 138.029 250.846C137.281 250.846 136.563 250.551 136.03 250.025C135.504 249.491 135.21 248.772 135.21 248.023C135.21 247.273 135.504 246.554 136.03 246.02L142.392 239.953C142.621 239.643 142.913 239.386 143.249 239.197C143.585 239.008 143.957 238.893 144.34 238.859C144.724 238.824 145.11 238.871 145.474 238.997C145.838 239.123 146.171 239.325 146.452 239.589Z" fill="#505050"/>
<path d="M268.909 116.973C269.185 117.229 269.404 117.539 269.555 117.883C269.705 118.228 269.782 118.6 269.782 118.976C269.782 119.352 269.705 119.723 269.555 120.068C269.404 120.412 269.185 120.722 268.909 120.978L262.547 127.409C262.014 127.935 261.296 128.23 260.548 128.23C259.799 128.23 259.081 127.935 258.548 127.409C258.023 126.875 257.728 126.156 257.728 125.407C257.728 124.657 258.023 123.938 258.548 123.405L264.971 116.973C265.501 116.465 266.206 116.182 266.94 116.182C267.674 116.182 268.379 116.465 268.909 116.973Z" fill="#505050"/>
<path d="M63.8645 175.945C62.8345 144.275 66.8942 105.203 86.8897 74.3824C109.491 39.6181 148.512 21.7808 202.5 21.7808C256.488 21.7808 295.51 39.3754 318.111 74.1398C338.106 104.961 342.348 144.033 341.136 175.703H359.313C360.586 140.696 356.041 96.8306 333.077 61.3382C306.84 20.8101 262.85 0 202.5 0C142.15 0 98.1599 20.8101 72.0445 61.3382C49.08 97.0733 44.5356 140.696 45.808 175.945H63.8645Z" fill="#505050"/>
<path d="M50.8977 153.679C47.0085 151.781 42.742 150.786 38.4156 150.767C17.2083 150.767 0 174.611 0 203.975C0 233.34 17.2083 257.244 38.4156 257.244C42.7465 257.204 47.0127 256.188 50.8977 254.271V153.679Z" fill="#505050"/>
<path d="M64.8338 140.089C61.556 138.249 57.8668 137.268 54.109 137.237H53.6242C47.5979 137.237 41.8184 139.634 37.5572 143.901C33.296 148.168 30.902 153.955 30.902 159.989V252.33C30.902 258.364 33.296 264.151 37.5572 268.418C41.8184 272.684 47.5979 275.082 53.6242 275.082H54.109C57.8668 275.051 61.556 274.07 64.8338 272.23V140.089Z" fill="#505050"/>
<path d="M359.253 254.332H349.073C349.073 258.155 347.558 343.033 243.036 351.83C242.065 350.309 240.731 349.053 239.156 348.174C237.58 347.295 235.811 346.821 234.008 346.795H194.199C192.738 346.786 191.29 347.07 189.941 347.63C188.591 348.19 187.367 349.014 186.339 350.053C185.312 351.093 184.503 352.328 183.959 353.686C183.415 355.043 183.147 356.496 183.171 357.958C183.171 360.887 184.333 363.695 186.401 365.766C188.469 367.837 191.274 369 194.199 369H234.008C236.242 369 238.421 368.314 240.253 367.034C242.084 365.753 243.479 363.941 244.248 361.841C357.495 351.891 359.253 255.364 359.253 254.332Z" fill="#505050"/>
<path d="M354.163 153.679C357.937 151.821 362.076 150.826 366.282 150.767C387.489 150.767 404.697 174.611 404.697 203.975C404.697 233.34 387.792 257.244 366.584 257.244C362.375 257.164 358.236 256.149 354.466 254.271L354.163 153.679Z" fill="#505050"/>
<path d="M340.166 140.089C343.444 138.249 347.133 137.268 350.891 137.237H351.436C357.463 137.237 363.242 139.634 367.503 143.901C371.765 148.168 374.159 153.955 374.159 159.989V252.33C374.159 258.364 371.765 264.151 367.503 268.418C363.242 272.684 357.463 275.082 351.436 275.082H350.952C347.194 275.051 343.505 274.07 340.227 272.23L340.166 140.089Z" fill="#505050"/>
</g>
<defs>
<clipPath id="clip0">
<rect width="405" height="369" fill="white"/>
</clipPath>
</defs>
</svg>
