<svg width="19" height="12" viewBox="0 0 19 12" fill="none" xmlns="http://www.w3.org/2000/svg">
<path fill-rule="evenodd" clip-rule="evenodd" d="M13.304 12C12.7625 12 12.3221 11.556 12.3221 11C12.3221 10.7365 12.4252 10.4837 12.6091 10.2964C12.7929 10.1092 13.0427 10.0026 13.304 10H17.2914C17.4211 10.0004 17.5494 10.0266 17.6691 10.0771C17.7887 10.1276 17.8972 10.2015 17.9884 10.2944C18.0797 10.3873 18.1518 10.4974 18.2007 10.6185C18.2496 10.7396 18.2743 10.8693 18.2734 11C18.2734 11.2635 18.1703 11.5163 17.9864 11.7036C17.8025 11.8908 17.5528 11.9974 17.2914 12H13.304ZM18.2734 1C18.2734 1.552 17.832 2 17.2885 2H1.40432C1.27442 1.99987 1.14583 1.97387 1.02594 1.92348C0.906046 1.87309 0.797211 1.79932 0.705685 1.70639C0.614159 1.61347 0.541746 1.50322 0.492611 1.382C0.443476 1.26077 0.418587 1.13095 0.419371 1C0.419371 0.448 0.860762 0 1.40432 0H17.2885C17.4184 0.000129361 17.5469 0.0261345 17.6668 0.0765214C17.7867 0.126908 17.8956 0.200683 17.9871 0.293608C18.0786 0.386533 18.151 0.496775 18.2002 0.618001C18.2493 0.739227 18.2742 0.869046 18.2734 1ZM7.36459 7C7.23413 7.00039 7.10488 6.97481 6.98425 6.92472C6.86362 6.87463 6.75399 6.80102 6.66164 6.70811C6.5693 6.6152 6.49607 6.50482 6.44614 6.3833C6.39622 6.26179 6.37059 6.13153 6.37072 6C6.37072 5.448 6.82302 5 7.36459 5H17.2795C17.41 4.99961 17.5393 5.02519 17.6599 5.07528C17.7805 5.12537 17.8901 5.19898 17.9825 5.29189C18.0748 5.3848 18.1481 5.49518 18.198 5.6167C18.2479 5.73821 18.2735 5.86847 18.2734 6C18.2734 6.552 17.8211 7 17.2795 7H7.36459Z" fill="#344563"/>
</svg>
