<svg width="19" height="12" viewBox="0 0 19 12" fill="none" xmlns="http://www.w3.org/2000/svg">
<path fill-rule="evenodd" clip-rule="evenodd" d="M5.14909 12C5.69066 12 6.13106 11.556 6.13106 11C6.13107 10.7365 6.02793 10.4837 5.84406 10.2964C5.66018 10.1092 5.41043 10.0026 5.14909 10H1.16168C1.032 10.0004 0.903676 10.0266 0.784066 10.0771C0.664456 10.1276 0.555918 10.2015 0.464681 10.2944C0.373444 10.3873 0.301305 10.4974 0.252402 10.6185C0.2035 10.7396 0.178797 10.8693 0.179712 11C0.179699 11.2635 0.282839 11.5163 0.466715 11.7036C0.65059 11.8908 0.900341 11.9974 1.16168 12H5.14909ZM0.179712 1C0.179712 1.552 0.621104 2 1.16466 2H17.0488C17.1787 1.99987 17.3073 1.97387 17.4272 1.92348C17.5471 1.87309 17.6559 1.79932 17.7474 1.70639C17.839 1.61347 17.9114 1.50322 17.9605 1.382C18.0096 1.26077 18.0345 1.13095 18.0338 1C18.0338 0.448 17.5924 0 17.0488 0H1.16466C1.03477 0.000129361 0.906177 0.0261345 0.786282 0.0765214C0.666388 0.126908 0.557551 0.200683 0.466025 0.293608C0.374499 0.386533 0.302088 0.496775 0.252953 0.618001C0.203818 0.739227 0.178928 0.869046 0.179712 1ZM11.0885 7C11.219 7.00039 11.3482 6.97481 11.4689 6.92472C11.5895 6.87463 11.6991 6.80102 11.7915 6.70811C11.8838 6.6152 11.9571 6.50482 12.007 6.3833C12.0569 6.26179 12.0825 6.13153 12.0824 6C12.0824 5.448 11.6301 5 11.0885 5H1.17359C1.04313 4.99961 0.913873 5.02519 0.793243 5.07528C0.672613 5.12537 0.562982 5.19898 0.47064 5.29189C0.378298 5.3848 0.305063 5.49518 0.255138 5.6167C0.205213 5.73821 0.179581 5.86847 0.179712 6C0.179712 6.552 0.632014 7 1.17359 7H11.0885Z" fill="#344563"/>
</svg>
