<svg width="13" height="10" viewBox="0 0 13 10" fill="none" xmlns="http://www.w3.org/2000/svg">
<path d="M0.776368 5C0.776368 4.448 1.22867 4 1.77024 4H11.6852C11.9483 4 12.2005 4.10536 12.3866 4.29289C12.5726 4.48043 12.6771 4.73478 12.6771 5C12.6771 5.26522 12.5726 5.51957 12.3866 5.70711C12.2005 5.89464 11.9483 6 11.6852 6H1.77024C1.63978 6.00039 1.51053 5.97481 1.3899 5.92472C1.26927 5.87463 1.15964 5.80102 1.0673 5.70811C0.974953 5.6152 0.901719 5.50482 0.851794 5.3833C0.801869 5.26179 0.776237 5.13153 0.776368 5ZM0.776368 9C0.776368 8.448 1.22867 8 1.77024 8H11.6852C11.9483 8 12.2005 8.10536 12.3866 8.29289C12.5726 8.48043 12.6771 8.73478 12.6771 9C12.6771 9.26521 12.5726 9.51957 12.3866 9.70711C12.2005 9.89464 11.9483 10 11.6852 10H1.77024C1.63978 10.0004 1.51053 9.97481 1.3899 9.92472C1.26927 9.87463 1.15964 9.80102 1.0673 9.70811C0.974953 9.6152 0.901719 9.50482 0.851794 9.3833C0.801869 9.26179 0.776237 9.13153 0.776368 9ZM0.776368 1C0.776368 0.448 1.22867 0 1.77024 0H11.6852C11.9483 0 12.2005 0.105357 12.3866 0.292893C12.5726 0.48043 12.6771 0.734783 12.6771 1C12.6771 1.26522 12.5726 1.51957 12.3866 1.70711C12.2005 1.89464 11.9483 2 11.6852 2H1.77024C1.63978 2.00039 1.51053 1.97481 1.3899 1.92472C1.26927 1.87463 1.15964 1.80102 1.0673 1.70811C0.974953 1.6152 0.901719 1.50482 0.851794 1.3833C0.801869 1.26179 0.776237 1.13153 0.776368 1Z" fill="#344563"/>
</svg>
