<svg width="150" height="111" viewBox="0 0 150 111" fill="none" xmlns="http://www.w3.org/2000/svg">
<path fill-rule="evenodd" clip-rule="evenodd" d="M21.8588 1.78623C21.8588 1.78623 40.0401 0 75.1209 0C110.202 0 126.849 1.78623 126.849 1.78623C126.849 1.78623 139.609 2.25677 144.597 12.3727C144.597 12.3727 149.583 19.7126 149.583 55.5C149.583 55.5 149.884 77.6551 147.521 89.4336C145.158 101.212 139.939 104.651 139.939 104.651C139.939 104.651 136.591 108.091 129.206 109.029C121.821 109.967 97.8758 111 75.1209 111C75.1209 111 33.4642 110.975 19.4327 108.52C5.40116 106.065 3.43004 92.194 3.43004 92.194C3.43004 92.194 -2.31661 57.0804 3.43004 18.8454C3.43004 18.8454 5.09343 3.57264 21.8588 1.78623ZM100.568 54.6328L59.7104 76.3125V32.9531L100.568 54.6328Z" fill="url(#paint0_linear)"/>
<defs>
<linearGradient id="paint0_linear" x1="0.875977" y1="0" x2="0.875977" y2="111" gradientUnits="userSpaceOnUse">
<stop stop-color="#E72B22"/>
<stop offset="1" stop-color="#DD2A22"/>
</linearGradient>
</defs>
</svg>
